<?xml version="1.0" encoding="UTF-8" standalone="no"?>
<svg xmlns="http://www.w3.org/2000/svg" width="1024" height="1024" viewBox="0 0 1024 1024">
  <defs>
    <linearGradient id="g" x1="0" x2="1" y1="0" y2="1">
      <stop offset="0%" stop-color="#ffd1e6"/>
      <stop offset="100%" stop-color="#ff84c7"/>
    </linearGradient>
    <linearGradient id="g2" x1="0" x2="1" y1="0" y2="1">
      <stop offset="0%" stop-color="#fff0e0"/>
      <stop offset="100%" stop-color="#ffb37a"/>
    </linearGradient>
  </defs>
  <!-- Stylized lily icon -->
  <rect width="100%" height="100%" fill="#ffffff"/>
  <!-- Petal left -->
  <path d="M256 512 C150 300, 300 120, 512 200 C420 320, 340 420, 256 512 Z" fill="url(#g)" />
  <!-- Petal right -->
  <path d="M768 512 C874 300, 724 120, 512 200 C604 320, 684 420, 768 512 Z" fill="url(#g)" />
  <!-- Petal top -->
  <path d="M512 112 C420 160, 360 260, 512 312 C664 260, 604 160, 512 112 Z" fill="url(#g)" />
  <!-- Center/inner petal -->
  <path d="M512 252 C482 310, 482 370, 512 430 C542 370, 542 310, 512 252 Z" fill="url(#g2)" />
  <!-- Stem -->
  <path d="M512 430 L512 880" stroke="#6b8e23" stroke-width="28" stroke-linecap="round" />
  <!-- Leaf left -->
  <path d="M460 620 C360 700, 300 760, 340 820 C400 760, 440 700, 460 620 Z" fill="#6b8e23" />
  <!-- Leaf right -->
  <path d="M564 620 C664 700, 724 760, 684 820 C624 760, 584 700, 564 620 Z" fill="#6b8e23" />
</svg>
